<svg xmlns="http://www.w3.org/2000/svg" viewBox="0 0 512 512" width="512" height="512"><circle cx="256" cy="256" r="256" fill="#D9EA55"/><g transform="translate(35.840,35.840) scale(4.40320)"><mask id="mC" maskUnits="userSpaceOnUse" x="-10" y="-10" width="120" height="120"><path d="M 70 18 H 43 A 17.5 17.5 0 0 0 43 53 H 57 A 17.5 17.5 0 0 1 57 88 H 30" fill="none" stroke="#fff" stroke-width="19" stroke-linecap="butt" stroke-linejoin="round"/></mask><path d="M 70 18 H 43 A 17.5 17.5 0 0 0 43 53 H 57 A 17.5 17.5 0 0 1 57 88 H 30" fill="none" stroke="#0D1D1E" stroke-width="19" stroke-linecap="butt" stroke-linejoin="round"/><g mask="url(#mC)" stroke="#D9EA55" stroke-width="2.6" stroke-linecap="butt"><line x1="-94.5" y1="-40" x2="-4.5" y2="140"/><line x1="-4.5" y1="-40" x2="-94.5" y2="140"/><line x1="-84" y1="-40" x2="6" y2="140"/><line x1="6" y1="-40" x2="-84" y2="140"/><line x1="-73.5" y1="-40" x2="16.5" y2="140"/><line x1="16.5" y1="-40" x2="-73.5" y2="140"/><line x1="-63" y1="-40" x2="27" y2="140"/><line x1="27" y1="-40" x2="-63" y2="140"/><line x1="-52.5" y1="-40" x2="37.5" y2="140"/><line x1="37.5" y1="-40" x2="-52.5" y2="140"/><line x1="-42" y1="-40" x2="48" y2="140"/><line x1="48" y1="-40" x2="-42" y2="140"/><line x1="-31.5" y1="-40" x2="58.5" y2="140"/><line x1="58.5" y1="-40" x2="-31.5" y2="140"/><line x1="-21" y1="-40" x2="69" y2="140"/><line x1="69" y1="-40" x2="-21" y2="140"/><line x1="-10.5" y1="-40" x2="79.5" y2="140"/><line x1="79.5" y1="-40" x2="-10.5" y2="140"/><line x1="0" y1="-40" x2="90" y2="140"/><line x1="90" y1="-40" x2="0" y2="140"/><line x1="10.5" y1="-40" x2="100.5" y2="140"/><line x1="100.5" y1="-40" x2="10.5" y2="140"/><line x1="21" y1="-40" x2="111" y2="140"/><line x1="111" y1="-40" x2="21" y2="140"/><line x1="31.5" y1="-40" x2="121.5" y2="140"/><line x1="121.5" y1="-40" x2="31.5" y2="140"/><line x1="42" y1="-40" x2="132" y2="140"/><line x1="132" y1="-40" x2="42" y2="140"/><line x1="52.5" y1="-40" x2="142.5" y2="140"/><line x1="142.5" y1="-40" x2="52.5" y2="140"/><line x1="63" y1="-40" x2="153" y2="140"/><line x1="153" y1="-40" x2="63" y2="140"/><line x1="73.5" y1="-40" x2="163.5" y2="140"/><line x1="163.5" y1="-40" x2="73.5" y2="140"/><line x1="84" y1="-40" x2="174" y2="140"/><line x1="174" y1="-40" x2="84" y2="140"/><line x1="94.5" y1="-40" x2="184.5" y2="140"/><line x1="184.5" y1="-40" x2="94.5" y2="140"/><line x1="105" y1="-40" x2="195" y2="140"/><line x1="195" y1="-40" x2="105" y2="140"/><line x1="115.5" y1="-40" x2="205.5" y2="140"/><line x1="205.5" y1="-40" x2="115.5" y2="140"/><line x1="126" y1="-40" x2="216" y2="140"/><line x1="216" y1="-40" x2="126" y2="140"/><line x1="136.5" y1="-40" x2="226.5" y2="140"/><line x1="226.5" y1="-40" x2="136.5" y2="140"/><line x1="147" y1="-40" x2="237" y2="140"/><line x1="237" y1="-40" x2="147" y2="140"/><line x1="157.5" y1="-40" x2="247.5" y2="140"/><line x1="247.5" y1="-40" x2="157.5" y2="140"/><line x1="168" y1="-40" x2="258" y2="140"/><line x1="258" y1="-40" x2="168" y2="140"/><line x1="178.5" y1="-40" x2="268.5" y2="140"/><line x1="268.5" y1="-40" x2="178.5" y2="140"/><line x1="189" y1="-40" x2="279" y2="140"/><line x1="279" y1="-40" x2="189" y2="140"/></g></g></svg>